<svg width="101" height="100" xmlns="http://www.w3.org/2000/svg" xmlns:xlink="http://www.w3.org/1999/xlink" xml:space="preserve" overflow="hidden"><defs><clipPath id="clip0"><rect x="242" y="288" width="101" height="100"/></clipPath></defs><g clip-path="url(#clip0)" transform="translate(-242 -288)"><path d="M98.4375 1.5625 1.5625 1.5625 1.5625 76.5625 14.0625 76.5625 14.0625 98.4375 85.9375 98.4375 85.9375 76.5625 98.4375 76.5625 98.4375 1.5625ZM95.3125 4.6875 95.3125 14.0625 4.6875 14.0625 4.6875 4.6875 95.3125 4.6875ZM82.8125 95.3125 17.1875 95.3125 17.1875 29.6875 82.8125 29.6875 82.8125 95.3125ZM85.9375 73.4375 85.9375 26.5625 14.0625 26.5625 14.0625 73.4375 4.6875 73.4375 4.6875 17.1875 95.3125 17.1875 95.3125 73.4375 85.9375 73.4375Z" fill="#FFFFFF" transform="matrix(1.01 0 0 1 242 288)"/><path d="M7.8125 7.8125 10.9375 7.8125 10.9375 10.9375 7.8125 10.9375Z" fill="#FFFFFF" transform="matrix(1.01 0 0 1 242 288)"/><path d="M14.0625 7.8125 17.1875 7.8125 17.1875 10.9375 14.0625 10.9375Z" fill="#FFFFFF" transform="matrix(1.01 0 0 1 242 288)"/><path d="M20.3125 7.8125 23.4375 7.8125 23.4375 10.9375 20.3125 10.9375Z" fill="#FFFFFF" transform="matrix(1.01 0 0 1 242 288)"/><path d="M51.5625 32.8125 20.3125 32.8125 20.3125 54.6875 51.5625 54.6875 51.5625 32.8125ZM48.4375 51.5625 23.4375 51.5625 23.4375 35.9375 48.4375 35.9375 48.4375 51.5625Z" fill="#FFFFFF" transform="matrix(1.01 0 0 1 242 288)"/><path d="M29.6875 76.5625 20.3125 76.5625 20.3125 92.1875 29.6875 92.1875 29.6875 76.5625ZM26.5625 89.0625 23.4375 89.0625 23.4375 79.6875 26.5625 79.6875 26.5625 89.0625Z" fill="#FFFFFF" transform="matrix(1.01 0 0 1 242 288)"/><path d="M32.8125 92.1875 42.1875 92.1875 42.1875 64.0625 32.8125 64.0625 32.8125 92.1875ZM35.9375 67.1875 39.0625 67.1875 39.0625 89.0625 35.9375 89.0625 35.9375 67.1875Z" fill="#FFFFFF" transform="matrix(1.01 0 0 1 242 288)"/><path d="M45.3125 92.1875 54.6875 92.1875 54.6875 79.6875 45.3125 79.6875 45.3125 92.1875ZM48.4375 82.8125 51.5625 82.8125 51.5625 89.0625 48.4375 89.0625 48.4375 82.8125Z" fill="#FFFFFF" transform="matrix(1.01 0 0 1 242 288)"/><path d="M57.8125 92.1875 67.1875 92.1875 67.1875 57.8125 57.8125 57.8125 57.8125 92.1875ZM60.9375 60.9375 64.0625 60.9375 64.0625 89.0625 60.9375 89.0625 60.9375 60.9375Z" fill="#FFFFFF" transform="matrix(1.01 0 0 1 242 288)"/><path d="M70.3125 92.1875 79.6875 92.1875 79.6875 70.3125 70.3125 70.3125 70.3125 92.1875ZM73.4375 73.4375 76.5625 73.4375 76.5625 89.0625 73.4375 89.0625 73.4375 73.4375Z" fill="#FFFFFF" transform="matrix(1.01 0 0 1 242 288)"/><path d="M54.6875 32.8125 79.6875 32.8125 79.6875 35.9375 54.6875 35.9375Z" fill="#FFFFFF" transform="matrix(1.01 0 0 1 242 288)"/><path d="M60.9375 39.0625 79.6875 39.0625 79.6875 42.1875 60.9375 42.1875Z" fill="#FFFFFF" transform="matrix(1.01 0 0 1 242 288)"/><path d="M54.6875 39.0625 57.8125 39.0625 57.8125 42.1875 54.6875 42.1875Z" fill="#FFFFFF" transform="matrix(1.01 0 0 1 242 288)"/><path d="M54.6875 45.3125 79.6875 45.3125 79.6875 48.4375 54.6875 48.4375Z" fill="#FFFFFF" transform="matrix(1.01 0 0 1 242 288)"/><path d="M76.5625 51.5625 79.6875 51.5625 79.6875 54.6875 76.5625 54.6875Z" fill="#FFFFFF" transform="matrix(1.01 0 0 1 242 288)"/><path d="M54.6875 51.5625 73.4375 51.5625 73.4375 54.6875 54.6875 54.6875Z" fill="#FFFFFF" transform="matrix(1.01 0 0 1 242 288)"/></g></svg>