<svg width="96" height="96" xmlns="http://www.w3.org/2000/svg" xmlns:xlink="http://www.w3.org/1999/xlink" xml:space="preserve" overflow="hidden"><defs><clipPath id="clip0"><rect x="438" y="292" width="96" height="96"/></clipPath></defs><g clip-path="url(#clip0)" transform="translate(-438 -292)"><path d="M462.9 354.9 460.1 352.1 468.7 343.5 460.1 334.9 462.9 332.1 474.3 343.5Z" fill="#FFFFFF"/><path d="M446 309 446 371 526 371 526 309 446 309ZM515 315C516.1 315 517 315.9 517 317 517 318.1 516.1 319 515 319 513.9 319 513 318.1 513 317 513 315.9 513.9 315 515 315ZM508 315C509.1 315 510 315.9 510 317 510 318.1 509.1 319 508 319 506.9 319 506 318.1 506 317 506 315.9 506.9 315 508 315ZM501 315C502.1 315 503 315.9 503 317 503 318.1 502.1 319 501 319 499.9 319 499 318.1 499 317 499 315.9 499.9 315 501 315ZM520 365 452 365 452 325 520 325 520 365Z" fill="#FFFFFF"/><path d="M476 351 492 351 492 355 476 355Z" fill="#FFFFFF"/></g></svg>