<svg width="96" height="96" xmlns="http://www.w3.org/2000/svg" xmlns:xlink="http://www.w3.org/1999/xlink" xml:space="preserve" overflow="hidden"><defs><clipPath id="clip0"><rect x="555" y="299" width="96" height="96"/></clipPath></defs><g clip-path="url(#clip0)" transform="translate(-555 -299)"><path d="M637.9 338.1C637.6 338.1 637.3 338.1 637 338.1L634.4 331.1C640.4 327.7 642.5 320.1 639.2 314.1 635.8 308.1 628.2 306 622.2 309.3 619.3 310.9 617.1 313.7 616.3 316.9L607 315.9C606.3 311.5 602.2 308.4 597.8 309.1 593.8 309.7 590.9 313.1 590.9 317.1 590.9 318.5 591.3 319.9 592 321.2L580.8 332.2C578.7 330.6 576.1 329.7 573.4 329.7 566.5 329.7 560.9 335.3 560.9 342.2 560.9 349.1 566.5 354.7 573.4 354.7L575.9 369.7C571.8 371.5 569.9 376.3 571.7 380.4 573.5 384.5 578.3 386.4 582.4 384.6 586.2 383 588.1 378.8 587 374.8L595.8 370.2C601.5 376.5 611.3 377 617.7 371.3 620.9 368.4 622.8 364.2 622.8 359.9 622.8 358.8 622.7 357.6 622.4 356.5L632.1 351.5C635.1 354.9 640.2 355.2 643.6 352.2 647 349.2 647.3 344.1 644.3 340.7 642.4 339.1 640.2 338.1 637.9 338.1L637.9 338.1ZM637.9 341.1C639.2 341.1 640.2 342.1 640.2 343.4 640.2 344.7 639.2 345.7 637.9 345.7 636.6 345.7 635.6 344.7 635.6 343.4 635.6 343.4 635.6 343.4 635.6 343.4 635.6 342.1 636.6 341.1 637.9 341.1L637.9 341.1ZM628.3 312.6C630.2 312.6 631.8 314.2 631.8 316.1 631.8 318 630.2 319.6 628.3 319.6 626.4 319.6 624.8 318 624.8 316.1 624.8 316.1 624.8 316.1 624.8 316.1 624.8 314.2 626.3 312.6 628.3 312.6ZM621.2 324C621.2 323.5 621.5 322.9 621.9 322.6 622.9 321.9 624.1 321.3 625.3 321 626.2 320.7 627.2 320.6 628.2 320.6 629.2 320.6 630.2 320.8 631.1 321 632.3 321.3 633.5 321.9 634.5 322.7 634.9 323 635.2 323.6 635.2 324.1L635.2 326.8 621.2 326.8 621.2 324ZM598.9 312C600.2 312 601.2 313 601.2 314.3 601.2 315.6 600.2 316.6 598.9 316.6 597.6 316.6 596.6 315.6 596.6 314.3 596.6 314.3 596.6 314.3 596.6 314.3 596.6 313.1 597.6 312 598.9 312L598.9 312ZM594.2 319.5C594.2 319.1 594.4 318.8 594.7 318.6 595.4 318.1 596.2 317.8 597 317.6 597.6 317.4 598.3 317.3 598.9 317.3 599.5 317.3 600.2 317.4 600.8 317.6 601.6 317.8 602.3 318.2 603 318.7 603.3 318.9 603.5 319.3 603.5 319.6L603.5 321.4 594.3 321.4 594.3 319.5ZM573.2 334.6C575.1 334.6 576.7 336.2 576.7 338.1 576.7 340 575.1 341.6 573.2 341.6 571.3 341.6 569.7 340 569.7 338.1 569.7 338.1 569.7 338.1 569.7 338.1 569.8 336.2 571.3 334.6 573.2 334.6L573.2 334.6ZM566.2 348.7 566.2 346C566.2 345.5 566.5 344.9 566.9 344.6 567.9 343.9 569.1 343.3 570.3 343 571.2 342.7 572.2 342.6 573.2 342.6 574.2 342.6 575.2 342.8 576.1 343 577.3 343.3 578.5 343.9 579.5 344.7 579.9 345 580.2 345.6 580.2 346.1L580.2 348.8 566.2 348.7ZM583.5 381.3 574.2 381.3 574.2 379.5C574.2 379.1 574.4 378.8 574.7 378.6 575.4 378.1 576.2 377.7 577 377.5 577.6 377.3 578.3 377.2 578.9 377.2 579.5 377.2 580.2 377.3 580.8 377.5 581.6 377.7 582.3 378.1 583 378.6 583.3 378.8 583.5 379.2 583.5 379.5L583.5 381.3ZM576.5 374.3C576.5 373 577.5 372 578.8 372 580.1 372 581.1 373 581.1 374.3 581.1 375.6 580.1 376.6 578.8 376.6 577.6 376.7 576.6 375.6 576.5 374.3L576.5 374.3ZM584.5 371.5C583.2 370.2 581.4 369.4 579.6 369.2L577.1 354.2C579.5 353.4 581.6 351.9 583.1 349.9L592.4 354.8C590.9 358.8 591.2 363.3 593.2 367.1L584.5 371.5ZM594.3 351.1 585.1 346.3C585.5 345 585.7 343.7 585.7 342.3 585.7 339.7 584.9 337.2 583.4 335.1L594.6 324.2C598.4 326.5 603.4 325.4 605.7 321.6 606 321.1 606.2 320.6 606.4 320.1L615.7 321.1C615.9 324.7 617.7 328.1 620.6 330.3L612.4 345.6C605.9 343 598.4 345.3 594.3 351.1L594.3 351.1ZM611.3 354.8C611.3 357.2 609.3 359.1 606.9 359.1 604.5 359.1 602.6 357.2 602.6 354.8 602.6 352.4 604.5 350.5 606.9 350.5 606.9 350.5 606.9 350.5 607 350.5 609.4 350.5 611.3 352.4 611.3 354.8L611.3 354.8ZM615.6 367.9 598.3 367.9 598.3 364.6C598.3 363.9 598.6 363.3 599.2 362.9 600.5 362 601.9 361.3 603.4 360.8 604.6 360.5 605.8 360.3 607 360.3 608.2 360.3 609.4 360.5 610.6 360.8 612.1 361.2 613.6 361.9 614.8 362.9 615.3 363.3 615.7 364 615.7 364.6L615.6 367.9ZM629.8 346.3C629.8 346.9 629.9 347.5 630.1 348.1L620.9 352.9C619.8 350.7 618.1 348.9 616.1 347.5L624.3 332.2C625.6 332.7 627 332.9 628.4 332.9 629.2 332.9 630 332.8 630.8 332.7L633.4 339.7C631 341.1 629.7 343.6 629.8 346.3ZM642.5 350.3 633.2 350.3 633.2 348.5C633.2 348.1 633.4 347.8 633.7 347.6 634.4 347.1 635.2 346.7 636 346.5 636.6 346.3 637.3 346.2 637.9 346.2 638.5 346.2 639.2 346.3 639.8 346.5 640.6 346.7 641.3 347.1 642 347.6 642.3 347.8 642.5 348.2 642.5 348.5L642.5 350.3Z" fill="#FFFFFF"/></g></svg>