<svg width="96" height="96" xmlns="http://www.w3.org/2000/svg" xmlns:xlink="http://www.w3.org/1999/xlink" xml:space="preserve" overflow="hidden"><defs><clipPath id="clip0"><rect x="672" y="299" width="96" height="96"/></clipPath></defs><g clip-path="url(#clip0)" transform="translate(-672 -299)"><path d="M716.9 371.4C716.4 371.4 715.8 371.3 715.4 370.9 714.6 370.2 714.5 368.9 715.2 368.1L719.1 363.6C719.8 362.8 721.1 362.7 721.9 363.4 722.7 364.1 722.8 365.4 722.1 366.2L718.2 370.7C717.9 371.1 717.4 371.3 716.9 371.4Z" fill="#FFFFFF"/><path d="M710.8 369.1C710.1 369.2 709.5 369 708.9 368.5 707.9 367.6 707.8 366 708.7 365L713.3 359.7C714.2 358.7 715.8 358.6 716.8 359.5 717.8 360.4 717.9 362 717 363L712.4 368.3C712 368.8 711.4 369.1 710.8 369.1Z" fill="#FFFFFF"/><path d="M704.5 365.4C703.7 365.5 702.9 365.2 702.3 364.7 701.1 363.6 700.9 361.7 702 360.5L706.6 355.2C707.7 354 709.6 353.8 710.8 354.9 712 356 712.2 357.9 711.1 359.1L706.5 364.4C706 365 705.2 365.4 704.5 365.4Z" fill="#FFFFFF"/><path d="M697.2 361.7C696.4 361.8 695.6 361.5 695 361 693.8 359.9 693.6 358 694.7 356.8L700 350.8C701.1 349.6 703 349.4 704.2 350.5 705.4 351.6 705.6 353.5 704.5 354.7L699.2 360.7C698.6 361.3 697.9 361.6 697.2 361.7Z" fill="#FFFFFF"/><path d="M676.6 339.7 684.3 344.4C685.2 345 686.5 344.7 687 343.7L696.3 328.3C696.9 327.4 696.6 326.1 695.6 325.6L688 320.9 676.6 339.7Z" fill="#FFFFFF"/><path d="M741.4 352.8 725.3 339 724.2 338 717.3 345.9C716.3 347.1 714.9 347.8 713.3 347.9 713.1 347.9 712.9 347.9 712.8 347.9 711.3 347.9 709.9 347.4 708.9 346.4 706.4 344.2 706.2 340.4 708.3 337.9L714.2 331.1C709.6 330.5 703.7 332.9 697.6 329.9L688.9 344.3 695.7 352.2 698.3 349.2C699.2 348.1 700.6 347.5 702.1 347.5L702.1 347.5C703.3 347.5 704.5 347.9 705.4 348.7 706.5 349.6 707 350.9 707.1 352.3 707.6 352.1 708.2 352 708.8 352 710 352 711.2 352.4 712.1 353.2 713.2 354.2 713.8 355.5 713.8 356.9 714.2 356.8 714.7 356.7 715.1 356.7L715.1 356.7C716.2 356.7 717.2 357.1 718.1 357.8 719 358.6 719.5 359.7 719.6 360.9 719.9 360.8 720.3 360.7 720.7 360.7L720.7 360.7C721.7 360.7 722.6 361 723.3 361.7 724.1 362.4 724.6 363.4 724.7 364.4 724.8 365.5 724.4 366.5 723.7 367.3L720.3 371.2 721.7 372.3C722.4 372.7 723.2 373 724.1 372.9 726.3 372.7 727.9 370.8 727.7 368.6 727.7 368.6 727.7 368.5 727.7 368.5 728 368.6 728.4 368.6 728.7 368.6 730.9 368.4 732.5 366.5 732.3 364.3 732.3 364.3 732.3 364.2 732.3 364.2 732.6 364.3 733 364.3 733.3 364.3 735.5 364.1 737.1 362.2 736.9 360 736.9 359.8 736.8 359.6 736.8 359.4 737.4 359.7 738.1 359.9 738.9 359.8 741.1 359.6 742.7 357.7 742.5 355.5 742.6 354.4 742.1 353.5 741.4 352.8Z" fill="#FFFFFF"/><path d="M763.4 339.7 755.7 344.4C754.8 345 753.5 344.7 753 343.7L743.7 328.3C743.1 327.4 743.4 326.1 744.4 325.6L752.1 320.9 763.4 339.7Z" fill="#FFFFFF"/><path d="M742.5 330.3C734.2 333.3 728.2 330.4 721.5 329.1 721.4 329.1 721 329 721 329 719.8 328.9 718.5 329.3 717.6 330.3L709.7 339.3C708.2 341 708.4 343.5 710.1 344.9 711 345.6 712 346 713.1 345.9 714.1 345.8 715.1 345.4 715.8 344.5 715.8 344.5 724 335.1 724 335.1L742.7 351.2 742.7 351.2 742.7 351.2C743.2 351.7 743.4 351.9 743.8 352.5L751 344.2 742.5 330.3Z" fill="#FFFFFF"/></g></svg>